<svg viewBox="0 0 32 32" version="1.1" xmlns="http://www.w3.org/2000/svg" xmlns:xlink="http://www.w3.org/1999/xlink"> <title>TVGlobo</title> <defs></defs> <g id="Page-1" stroke="none" stroke-width="1" fill="none" fill-rule="evenodd"> <g id="Logos-Vetor" transform="translate(-97.000000, -54.000000)" fill-rule="nonzero" fill="#FFFFFF"> <g id="TVGlobo" transform="translate(97.000000, 54.000000)"> <path d="M32,16 C32,24.8365571 24.8365566,32 16,32 C7.16344343,32 0,24.8365571 0,16 C0,7.16344571 7.16344343,0 16,0 C24.8365566,0 32,7.16344571 32,16 Z M16.1337246,8.34845453 C12.546043,8.34845453 5.09697096,8.48018254 4.06535495,9.25804658 C3.04979974,10.0237938 3.12170534,13.4712084 3.12170534,16.2932453 C3.12170534,19.1392054 2.88836614,22.0369416 4.00530055,22.879132 C5.13815656,23.7333321 13.0457726,23.9748057 16.1337246,23.9748057 C19.5843615,23.9748057 26.7607519,23.5163336 27.7283262,22.786764 C28.6806911,22.068652 28.7014415,18.719655 28.7014415,16.2932453 C28.7014415,13.8189764 28.6463151,9.80160019 27.6569983,9.18764816 C26.6141951,8.54050093 19.3440287,8.34845453 16.1337246,8.34845453 Z" id="Combined-Shape"></path> <path d="M22.7411168,16.2436548 C22.7411168,19.966672 19.7230159,22.9847716 16,22.9847716 C12.2769841,22.9847716 9.25888325,19.966672 9.25888325,16.2436548 C9.25888325,12.5206413 12.2769841,9.50253807 16,9.50253807 C19.7230159,9.50253807 22.7411168,12.5206413 22.7411168,16.2436548 L22.7411168,16.2436548 L22.7411168,16.2436548 Z" id="Shape"></path> </g> </g> </g> </svg>